<svg xmlns="http://www.w3.org/2000/svg" width="452" height="638" viewBox="0 0 452 638"><switch transform="translate(-93) scale(1.24609)"><g><path fill="#e44d26" d="M74.633 100.62h362.734l-33.046 370.199L255.778 512l-148.134-41.123z"/><path fill="#f16529" d="M404.27 130.894H256v349.629l120.03-33.277z"/><g fill="#ebebeb"><path d="M142.132 176.305l1.087 12.183 11.161 125.139H256v-45.41h-60.09l-4.15-46.501H256v-45.411h-.157zM162.771 407.634l93.02 25.823.209-.058v-47.246l-.199.053-50.574-13.656-3.233-36.217h-45.585z"/></g><path d="M108.382 0h23.077v22.8h21.11V0h23.078v69.044H152.57v-23.12h-21.11v23.12h-23.077V0zM205.994 22.896h-20.316V0h63.72v22.896h-20.325v46.148h-23.078V22.896zM259.511 0h24.063l14.802 24.26L313.163 0h24.072v69.044h-22.982V34.822l-15.877 24.549h-.397l-15.888-24.549v34.222h-22.58V0zM348.72 0h23.084v46.222h32.453v22.822H348.72V0z"/><g fill="#fff"><path d="M349.162 268.217h-93.319v45.41h55.918l-5.271 58.894-50.647 13.67v47.244l93.094-25.801.683-7.672 10.671-119.551 1.108-12.194zM365.531 221.716l.911-10.207 2.069-23.021 1.086-12.183H255.843V221.716h109.542z"/></g></g></switch></svg>